<svg t="1751082463388" class="icon" viewBox="0 0 1024 1024" version="1.1" xmlns="http://www.w3.org/2000/svg" p-id="1552" width="200" height="200"><path d="M938.533541 212.468019H895.400936V43.132605C895.400936 17.572543 877.828393 0 852.268331 0H171.731669C146.171607 0 128.599064 17.572543 128.599064 43.132605v170.932918H85.466459c-25.560062 0-43.132605 17.572543-43.132606 43.132605v340.268331c0 25.560062 17.572543 43.132605 43.132606 43.132605H128.599064v340.268331c0 25.560062 17.572543 43.132605 43.132605 43.132605h682.134166c25.560062 0 43.132605-17.572543 43.132605-43.132605V639.00156h43.132605c25.560062 0 43.132605-17.572543 43.132606-43.132605V255.600624c-3.195008-25.560062-19.170047-43.132605-44.73011-43.132605z m-725.26677-127.800312h595.868954v127.800312H213.266771v-127.800312z m597.466458 853.067082H213.266771V639.00156h595.868954v298.733229z m84.667707-383.400936H128.599064v-255.600624H895.400936v255.600624z" p-id="1553" fill="#707070"></path><path d="M341.067083 766.801872h340.26833c25.560062 0 43.132605-17.572543 43.132606-43.132605s-17.572543-43.132605-43.132606-43.132606H341.067083c-25.560062 0-43.132605 17.572543-43.132606 43.132606 1.597504 25.560062 17.572543 43.132605 43.132606 43.132605zM341.067083 894.602184h340.26833c25.560062 0 43.132605-17.572543 43.132606-43.132605s-17.572543-43.132605-43.132606-43.132606H341.067083c-25.560062 0-43.132605 17.572543-43.132606 43.132606 1.597504 25.560062 17.572543 43.132605 43.132606 43.132605z" p-id="1554" fill="#707070"></path><path d="M810.733229 383.400936m-43.132605 0a43.132605 43.132605 0 1 0 86.265211 0 43.132605 43.132605 0 1 0-86.265211 0Z" p-id="1555" fill="#707070"></path></svg>